# xmcd
#
# Track frame offsets: 
#        150
#        11374
#        21410
#        32021
#        46425
#        58868
#        71592
#        84168
#        95544
#        103603
#        113741
#        127633
#        138571
#        149434
#        161895
#        173096
#        184365
#        199178
#        211442
#        225754
#        235190
#        244463
#        254215
#        266538
#        276909
#        288570
#        301323
#        311415
#        323590
#        334800
#
# Disc length: 4607 seconds
#
# Revision: 0
# Processed by: cddbd v1.5.2PL0 Copyright (c) Steve Scherf et al.
# Submitted via: ExactAudioCopy v1.0b3
#
DISCID=b811fd1e
DTITLE=Elton Britt - The Versatile Elton Britt (Jasmine)_CD2
DYEAR=2012
DGENRE=Country
TTITLE0=Beyond The Sunset
TTITLE1=Lost Highway
TTITLE2=Trees
TTITLE3=I'm Tying The Leaves (So They Won't Come Down)
TTITLE4=Born To Lose
TTITLE5=Will The Angels Let Me Play
TTITLE6=The Convict And The Rose
TTITLE7=When The Work's All Done This Fall
TTITLE8=The Precious Jewel
TTITLE9=Let Me Talk To You
TTITLE10=Don't Make Me Go To Bed And I'll Be Good
TTITLE11=Left My Gal In The Mountains
TTITLE12=I Hung Down My Head And Cried
TTITLE13=Someday (You'll Want Me To Want You)
TTITLE14=Chime Bells (1954 Version)
TTITLE15=Grandfather's Clock
TTITLE16=Lorelei
TTITLE17=There's A Star Spangled Banner (1954 Version)
TTITLE18=Little Pal
TTITLE19=Some Time Sue
TTITLE20=Star Of My Heart
TTITLE21=I'll Cry Over You
TTITLE22=Put Me In Your Pocket
TTITLE23=Ragtime Doughboy Joe
TTITLE24=Blue Texas Moonlight
TTITLE25=Singing Hosanna
TTITLE26=Ridin' With My Gal
TTITLE27=Trip To The Moon
TTITLE28=Virginia Belle
TTITLE29=Dreaming Of The Lone Prairie
EXTD=
EXTT0=
EXTT1=
EXTT2=
EXTT3=
EXTT4=
EXTT5=
EXTT6=
EXTT7=
EXTT8=
EXTT9=
EXTT10=
EXTT11=
EXTT12=
EXTT13=
EXTT14=
EXTT15=
EXTT16=
EXTT17=
EXTT18=
EXTT19=
EXTT20=
EXTT21=
EXTT22=
EXTT23=
EXTT24=
EXTT25=
EXTT26=
EXTT27=
EXTT28=
EXTT29=
PLAYORDER=
